<?xml version="1.0" encoding="UTF-8"?>
<svg id="Layer_1" data-name="Layer 1" xmlns="http://www.w3.org/2000/svg" viewBox="0 0 914.29 946.29">
  <defs>
    <style>
      .cls-1 {
        fill: #283618;
        stroke-width: 0px;
      }
    </style>
  </defs>
  <path class="cls-1" d="m877.71,242.29h-168.69c15.54-24.46,24.69-53.49,24.69-84.57C733.71,70.74,662.97,0,576,0c-47.31,0-89.94,21.03-118.86,54.17C428.23,21.03,385.6,0,338.29,0,251.31,0,180.57,70.74,180.57,157.71c0,31.09,9.03,60.11,24.69,84.57H36.57C16.34,242.29,0,258.63,0,278.86v228.57c0,5.03,4.11,9.14,9.14,9.14h45.71v393.14c0,20.23,16.34,36.57,36.57,36.57h731.43c20.23,0,36.57-16.34,36.57-36.57v-393.14h45.71c5.03,0,9.14-4.11,9.14-9.14v-228.57c0-20.23-16.34-36.57-36.57-36.57h0Zm-459.43,626.29H132.57v-352h285.71v352h0Zm0-429.71H77.71v-118.86h340.57v118.86h0Zm0-201.14h-80c-44.11,0-80-35.89-80-80s35.89-80,80-80,80,35.89,80,80v80Zm77.71-80c0-44.11,35.89-80,80-80s80,35.89,80,80-35.89,80-80,80h-80v-80Zm285.71,710.86h-285.71v-352h285.71v352Zm54.86-429.71h-340.57v-118.86h340.57v118.86h0Z"/>
</svg>