<?xml version="1.0" encoding="UTF-8"?>
<svg id="Layer_1" data-name="Layer 1" xmlns="http://www.w3.org/2000/svg" viewBox="0 0 518.05 473.34">
  <defs>
    <style>
      .cls-1, .cls-2 {
        stroke-width: 0px;
      }

      .cls-2 {
        fill: #e8dda7;
      }
    </style>
  </defs>
  <path class="cls-2" d="m414.03,188.19c0,37.78-34.57,83.4-81.98,117.62,1.07,8.2,2.14,16.4,2.14,25.31,0,17.11-3.21,32.79-8.55,47.05,44.91-4.99,72-40.28,72-68.43,0-12.12-6.06-20.67-19.6-20.67v-.71c14.26,0,20.32,8.55,20.32,21.39,0,28.16-27.09,64.16-73.07,69.15-23.17,60.24-88.75,94.45-143.64,94.45-48.12,0-76.99-30.3-76.99-63.44,0-22.81,13.9-40.99,31.37-42.77v.71c-16.75,1.78-30.65,19.96-30.65,42.06,0,32.08,28.51,62.73,76.63,62.73s102.3-32.79,121.19-93.74c-24.95-2.5-43.49-13.9-56.67-30.3-17.82,5.35-36,8.55-53.46,8.55-62.38,0-88.75-38.85-84.47-80.2,7.49-73.07,81.27-115.84,166.1-153.98l16.4-7.13C298.91,39.92,339.89,0,382.67,0c24.59,0,36,12.83,36,32.08,0,38.14-60.95,57.38-126.18,84.83-.36,5.35-.71,10.69-.71,16.04,0,6.42,0,12.48.36,18.18,20.67-14.26,43.84-23.17,66.3-23.17,33.5.36,55.6,28.51,55.6,60.24Zm-169.31,158.25c-14.61-19.96-21.39-46.69-21.39-74.49,0-47.05,28.87-92.32,66.3-119.4v-9.27c0-8.91.36-17.47,1.07-25.66l-16.4,7.13c-68.08,34.57-137.23,85.54-137.23,160.04,0,33.15,17.11,66.65,69.15,66.65,13.19,0,26.02-1.78,38.49-4.99Zm65.23-31.72c-2.85-47.05-18.53-105.86-20.32-161.46-37.07,27.09-65.58,72.35-65.58,118.69,0,27.45,6.77,54.18,21.74,74.14,23.17-6.06,44.91-17.11,64.16-31.37Zm.36,5.35c-19.96,12.12-41.35,22.1-62.73,28.51,12.83,16.04,31.37,27.09,55.96,29.58,4.28-14.61,7.13-31.01,7.13-49.19,0-2.85,0-6.06-.36-8.91Zm48.12-191.4c-22.46,0-45.62,8.91-66.3,23.17,1.78,28.16,7.84,50.97,16.75,78.41,7.13,22.81,16.4,43.84,21.39,67.72,42.42-39.21,68.79-91.6,68.79-128.67,0-26.73-16.04-39.92-40.63-40.63Zm-65.94-13.54c69.5-31.72,119.76-57.39,119.76-91.96,0-13.19-7.49-22.46-28.51-22.46-47.41,0-85.19,46.69-91.25,114.41Z"/>
  <g>
    <path class="cls-1" d="m57.71,189.22c-8.33-19.19-10.11-33.02-33.17-33.02h-10.26v35.25c0,13.68,1.79,16.21,5.95,17.25v1.64H0v-1.64c4.17-1.04,5.95-3.57,5.95-17.25v-66.34c0-13.68-1.78-16.21-5.95-17.25v-1.64h27.37c27.67,0,38.97,8.18,38.97,22.61s-10.86,25.14-29.9,27.07c19.93,2.83,22.31,14.28,28.86,30.94,6.25,15.77,10.56,22.31,15.32,22.31.89,0,1.64-.15,2.53-.3v1.49c-1.04.45-4.02,1.04-7.29,1.04-10.71,0-12.35-8.78-18.15-22.16Zm-.6-57.12c0-14.58-9.52-23.95-35.4-23.95-2.38,0-4.76.15-7.44.3v45.66h15.77c17.25,0,27.07-8.03,27.07-22.01Z"/>
    <path class="cls-1" d="m141.15,207.37v-28.41c-5.06,19.34-19.34,32.87-33.32,32.87-11.16,0-21.57-6.4-21.57-19.49,0-15.62,15.62-21.27,32.72-25.73l22.01-5.8c-.89-14.43-7.88-22.01-22.16-22.01-9.52,0-18.74,4.76-25.88,13.98l-1.34-1.04c8.63-11.01,18.89-16.81,31.24-16.81,18,0,26.03,10.26,26.03,25.58v30.94c0,13.68,1.79,16.21,5.95,17.25v1.64h-10.71c-1.93,0-2.97-1.04-2.97-2.97Zm-29.9-2.08c17.4,0,29.75-19.63,29.9-37.48v-5.21l-21.57,5.65c-15.62,4.17-25.29,9.07-25.14,21.12.15,9.52,6.54,15.92,16.81,15.92Z"/>
    <path class="cls-1" d="m179.38,203.2v28.41c0,13.69,1.78,16.21,5.95,17.25v1.64h-19.63v-1.64c4.17-1.04,5.95-3.57,5.95-17.25v-74.37c0-12.2-1.49-13.54-5.95-15.47v-1.34l12.64-5.5,1.04.89v12.49c8.33-6.69,18.89-13.39,31.83-13.39,15.92,0,30.34,13.09,30.34,36.89,0,18.59-11.9,39.57-37.04,39.86-9.97.15-19.49-4.17-25.14-8.48Zm28.71,5.8c15.17,0,26.33-10.41,26.33-31.68,0-19.93-8.78-38.52-28.41-38.52-11.16,0-19.93,5.95-26.62,11.45v36c0,9.96,12.64,22.76,28.71,22.76Z"/>
    <path class="cls-1" d="m251.96,208.71c4.16-1.04,5.95-3.57,5.95-17.25v-78.83c0-12.2-1.49-13.54-5.95-15.47v-1.34l12.64-5.5,1.04.89v57.56c9.07-7.44,20.97-13.83,32.43-13.83,15.62,0,24.25,9.82,24.25,27.37v29.15c0,13.68,1.79,16.21,5.95,17.25v1.64h-19.63v-1.64c4.17-1.04,5.95-3.57,5.95-17.25v-26.03c0-17.7-7.29-26.62-22.76-26.62-9.37,0-19.04,6.1-26.18,12.2v40.46c0,13.68,1.79,16.21,5.95,17.25v1.64h-19.63v-1.64Z"/>
    <path class="cls-1" d="m393.26,207.37v-28.41c-5.06,19.34-19.34,32.87-33.32,32.87-11.16,0-21.57-6.4-21.57-19.49,0-15.62,15.62-21.27,32.72-25.73l22.01-5.8c-.89-14.43-7.88-22.01-22.16-22.01-9.52,0-18.74,4.76-25.88,13.98l-1.34-1.04c8.63-11.01,18.89-16.81,31.24-16.81,18,0,26.03,10.26,26.03,25.58v30.94c0,13.68,1.79,16.21,5.95,17.25v1.64h-10.71c-1.93,0-2.97-1.04-2.97-2.97Zm-29.9-2.08c17.4,0,29.75-19.63,29.9-37.48v-5.21l-21.57,5.65c-15.62,4.17-25.29,9.07-25.14,21.12.15,9.52,6.54,15.92,16.81,15.92Z"/>
    <path class="cls-1" d="m417.21,174.79c0-23.06,16.81-39.86,39.27-39.86,17.1,0,28.26,10.56,29,25.88h-59.79c-.59,2.83-.89,5.8-.89,8.92,0,21.57,13.68,35.55,33.32,35.55,12.05,0,19.93-5.5,27.52-14.13l1.19,1.19c-8.33,10.41-19.78,19.49-34.21,19.49-16.36,0-35.4-12.05-35.4-37.04Zm59.94-15.77c-1.19-7.44-8.78-21.57-25.88-21.57-12.79,0-22.01,8.33-25.29,21.57h51.17Z"/>
    <path class="cls-1" d="m498.42,208.71c4.17-1.04,5.95-3.57,5.95-17.25v-78.83c0-12.2-1.49-13.54-5.95-15.47v-1.34l12.64-5.5,1.04.89v100.25c0,13.68,1.79,16.21,5.95,17.25v1.64h-19.63v-1.64Z"/>
  </g>
  <g>
    <path class="cls-1" d="m28.64,273.91v-1.64h18.74v1.64c-4.16,1.04-4.02,3.27.89,15.92l30.49,77.79,29.75-77.64c3.57-9.52,3.42-15.02-1.78-16.06v-1.64h16.21v1.64c-3.72,1.04-7.29,3.27-12.2,16.06l-33.76,87.91h-2.68l-34.66-88.06c-4.91-12.64-8.03-14.87-11.01-15.92Z"/>
    <path class="cls-1" d="m127.25,374.76c4.17-1.04,5.95-3.57,5.95-17.25v-34.21c0-12.2-1.49-13.54-5.95-15.47v-1.34l12.64-5.5,1.04.89v55.63c0,13.68,1.78,16.21,5.95,17.25v1.64h-19.63v-1.64Zm2.83-93.41c0-3.42,2.68-6.1,6.1-6.1s6.1,2.68,6.1,6.1-2.68,6.1-6.1,6.1-6.1-2.68-6.1-6.1Z"/>
    <path class="cls-1" d="m166.52,357.95v-54.14h-9.52v-1.78l15.62-16.81h1.64v16.81h22.31l-.89,1.78h-21.42v53.84c0,11.16,4.91,14.88,11.16,14.88,5.21,0,10.56-2.53,15.47-8.18l1.19,1.19c-4.61,5.5-12.49,12.35-20.82,12.35s-14.73-5.06-14.73-19.93Z"/>
    <path class="cls-1" d="m204.75,339.36c0-22.46,17.85-38.38,38.23-38.38,18.44,0,38.08,11.9,38.08,38.52s-20.53,38.38-38.08,38.38c-18.44,0-38.23-12.05-38.23-38.52Zm69.02,6.1c0-19.49-14.13-41.95-34.06-41.95-17.55,0-27.22,12.94-27.22,30.19,0,20.38,14.28,41.35,34.21,41.35,17.25,0,27.07-12.94,27.07-29.6Z"/>
    <path class="cls-1" d="m293.25,374.76c4.17-1.04,5.95-3.57,5.95-17.25v-34.21c0-12.2-1.49-13.54-5.95-15.47v-1.34l12.64-5.5,1.04.89v18.89c2.38-6.25,6.69-11.9,10.56-14.87,3.72-2.83,8.63-4.91,15.62-4.91s9.96,1.79,9.96,3.57c0,3.12-3.27,7.14-7.29,7.14-3.57,0-9.82-1.64-17.7-3.72-5.06,3.12-10.56,13.09-11.16,19.93v29.6c0,13.68,1.78,16.21,5.95,17.25v1.64h-19.63v-1.64Z"/>
    <path class="cls-1" d="m350.66,374.76c4.17-1.04,5.95-3.57,5.95-17.25v-34.21c0-12.2-1.49-13.54-5.95-15.47v-1.34l12.64-5.5,1.04.89v55.63c0,13.68,1.78,16.21,5.95,17.25v1.64h-19.63v-1.64Zm2.83-93.41c0-3.42,2.68-6.1,6.1-6.1s6.1,2.68,6.1,6.1-2.68,6.1-6.1,6.1-6.1-2.68-6.1-6.1Z"/>
    <path class="cls-1" d="m437.08,373.42v-28.41c-5.06,19.34-19.34,32.87-33.32,32.87-11.16,0-21.57-6.4-21.57-19.49,0-15.62,15.62-21.27,32.72-25.73l22.01-5.8c-.89-14.43-7.88-22.01-22.16-22.01-9.52,0-18.74,4.76-25.88,13.98l-1.34-1.04c8.63-11.01,18.89-16.81,31.24-16.81,18,0,26.03,10.26,26.03,25.58v30.94c0,13.68,1.79,16.21,5.95,17.25v1.64h-10.71c-1.93,0-2.97-1.04-2.97-2.97Zm-29.9-2.08c17.4,0,29.75-19.63,29.9-37.48v-5.21l-21.57,5.65c-15.62,4.17-25.29,9.07-25.14,21.12.15,9.52,6.54,15.92,16.81,15.92Z"/>
  </g>
</svg>